<?xml version="1.0" encoding="utf-8"?>
<!-- Generator: Adobe Illustrator 21.0.0, SVG Export Plug-In . SVG Version: 6.00 Build 0)  -->
<svg version="1.1" id="Layer_1" xmlns="http://www.w3.org/2000/svg" xmlns:xlink="http://www.w3.org/1999/xlink" x="0px" y="0px"
	 viewBox="0 0 273 273" style="enable-background:new 0 0 273 273;" xml:space="preserve">
<style type="text/css">
	.st0{fill:#FFFFFF;}
</style>
<title>squash-ball</title>
<path d="M136.5,272.5c-75,0-136-61-136-136s61-136,136-136s136,61,136,136S211.5,272.5,136.5,272.5z"/>
<path class="st0" d="M64.5,110.5c-6.1,0-11-4.9-11-11s4.9-11,11-11s11,4.9,11,11S70.6,110.5,64.5,110.5z"/>
<path d="M64.5,89C70.3,89,75,93.7,75,99.5S70.3,110,64.5,110S54,105.3,54,99.5C54,93.7,58.7,89,64.5,89 M64.5,88
	C58.1,88,53,93.1,53,99.5S58.1,111,64.5,111S76,105.9,76,99.5l0,0C76,93.1,70.9,88,64.5,88z"/>
<path class="st0" d="M94.5,75.5c-6.1,0-11-4.9-11-11s4.9-11,11-11s11,4.9,11,11S100.6,75.5,94.5,75.5z"/>
<path d="M94.5,54c5.8,0,10.5,4.7,10.5,10.5S100.3,75,94.5,75S84,70.3,84,64.5l0,0C84,58.7,88.7,54,94.5,54 M94.5,53
	C88.1,53,83,58.1,83,64.5S88.1,76,94.5,76S106,70.9,106,64.5l0,0C106,58.1,100.9,53,94.5,53z"/>
</svg>
